<svg width="97" height="68" viewBox="0 0 97 68" fill="none" xmlns="http://www.w3.org/2000/svg">
<path d="M0.523438 68L8.92344 54H82.5234C82.5901 52.2 82.0234 50.7667 80.8234 49.7C79.6901 48.5667 77.2568 48 73.5234 48H14.4234L28.6234 34H73.5234C78.4568 34 82.4234 34.7 85.4234 36.1C88.4234 37.5 90.6901 39.3667 92.2234 41.7C93.8234 44.0333 94.9234 46.6 95.5234 49.4C96.1234 52.2 96.4234 55.0333 96.4234 57.9C96.4901 60.7 96.5234 63.3 96.5234 65.7C96.5234 66.5 96.1901 67.0667 95.5234 67.4C94.8568 67.7333 94.1901 67.9333 93.5234 68C92.8568 68 92.5234 68 92.5234 68H0.523438ZM32.8234 47.1L25.7234 36.9L62.1234 0.9V21.8C61.6568 21.0667 61.1901 20.7 60.7234 20.7C60.2568 20.7 59.8234 20.9 59.4234 21.3L32.8234 47.1Z" fill="#F39345"/>
</svg>
